<?xml version="1.0" encoding="utf-8"?>
<!-- Generator: Adobe Illustrator 23.0.1, SVG Export Plug-In . SVG Version: 6.00 Build 0)  -->
<svg version="1.1" id="Layer_1" xmlns="http://www.w3.org/2000/svg" xmlns:xlink="http://www.w3.org/1999/xlink" x="0px" y="0px"
	 viewBox="0 0 800 313.3" style="enable-background:new 0 0 800 313.3;" xml:space="preserve">
<style type="text/css">
	.st0{fill:none;stroke:#000000;}
	.st1{font-family:'ArialMT';}
	.st2{font-size:8.9746px;}
	.st3{fill:#3182BD;stroke:#000000;stroke-width:2;}
	.st4{font-size:10.7695px;}
	.st5{fill:none;stroke:#000000;stroke-width:2;stroke-miterlimit:10;}
	.st6{fill:#FFFFFF;stroke:#000000;stroke-width:2;}
	.st7{fill:#ADD8E6;fill-opacity:0.5;stroke:#0000FF;stroke-width:2;}
	.st8{fill:#90EE90;fill-opacity:0.5;stroke:#008000;stroke-width:2;}
	.st9{fill:#FFFFFF;stroke:#808080;}
	.st10{font-family:'MyriadPro-Regular';}
	.st11{font-size:14px;}
</style>
<g>
	<g transform="translate(0, 94)">
		<path class="st0" d="M14.1-2.9v-4.9h770"/>
		<g transform="translate(0.5,0)">
			<line class="st0" x1="13.6" y1="-8.3" x2="13.6" y2="-2.9"/>
			<text transform="matrix(1 0 0 1 11.1139 6.1595)" class="st1 st2">0</text>
		</g>
		<g transform="translate(78.5,0)">
			<line class="st0" x1="5.6" y1="-8.3" x2="5.6" y2="-2.9"/>
			<text transform="matrix(1 0 0 1 0.6203 6.1595)" class="st1 st2">32</text>
		</g>
		<g transform="translate(156.5,0)">
			<line class="st0" x1="-2.4" y1="-8.3" x2="-2.4" y2="-2.9"/>
			<text transform="matrix(1 0 0 1 -7.3783 6.1595)" class="st1 st2">64</text>
		</g>
		<g transform="translate(234.5,0)">
			<line class="st0" x1="-10.4" y1="-8.3" x2="-10.4" y2="-2.9"/>
			<text transform="matrix(1 0 0 1 -15.3768 6.1595)" class="st1 st2">96</text>
		</g>
		<g transform="translate(312.5,0)">
			<line class="st0" x1="-18.4" y1="-8.3" x2="-18.4" y2="-2.9"/>
			<text transform="matrix(1 0 0 1 -25.8704 6.1595)" class="st1 st2">128</text>
		</g>
		<g transform="translate(390.5,0)">
			<line class="st0" x1="-26.4" y1="-8.3" x2="-26.4" y2="-2.9"/>
			<text transform="matrix(1 0 0 1 -33.8695 6.1595)" class="st1 st2">160</text>
		</g>
		<g transform="translate(468.5,0)">
			<line class="st0" x1="-34.4" y1="-8.3" x2="-34.4" y2="-2.9"/>
			<text transform="matrix(1 0 0 1 -41.8675 6.1595)" class="st1 st2">192</text>
		</g>
		<g transform="translate(546.5,0)">
			<line class="st0" x1="-42.4" y1="-8.3" x2="-42.4" y2="-2.9"/>
			<text transform="matrix(1 0 0 1 -49.8656 6.1595)" class="st1 st2">224</text>
		</g>
		<g transform="translate(624.5,0)">
			<line class="st0" x1="-50.4" y1="-8.3" x2="-50.4" y2="-2.9"/>
			<text transform="matrix(1 0 0 1 -57.8646 6.1595)" class="st1 st2">256</text>
		</g>
		<g transform="translate(702.5,0)">
			<line class="st0" x1="-58.4" y1="-8.3" x2="-58.4" y2="-2.9"/>
			<text transform="matrix(1 0 0 1 -65.8626 6.1595)" class="st1 st2">288</text>
		</g>
		<g transform="translate(780.5,0)">
			<line class="st0" x1="-66.4" y1="-8.3" x2="-66.4" y2="-2.9"/>
			<text transform="matrix(1 0 0 1 -73.8607 6.1595)" class="st1 st2">320</text>
		</g>
		<g transform="translate(858.5,0)">
			<line class="st0" x1="-74.4" y1="-8.3" x2="-74.4" y2="-2.9"/>
			<text transform="matrix(1 0 0 1 -81.8597 6.1595)" class="st1 st2">352</text>
		</g>
	</g>
	<rect x="13.7" y="28.3" class="st3" width="70" height="57.4"/>
	<text transform="matrix(1 0 0 1 20.5421 56.992)" class="st1 st4">HG Primary</text>
	<rect x="153.7" y="28.3" class="st3" width="70" height="57.4"/>
	<text transform="matrix(1 0 0 1 155.4495 56.992)" class="st1 st4">HG Occlusion</text>
	<rect x="293.7" y="28.3" class="st3" width="70" height="57.4"/>
	<text transform="matrix(1 0 0 1 300.5484 56.992)" class="st1 st4">HG Primary</text>
	<rect x="433.7" y="28.3" class="st3" width="70" height="57.4"/>
	<text transform="matrix(1 0 0 1 435.4557 56.992)" class="st1 st4">HG Occlusion</text>
	<rect x="573.7" y="28.3" class="st3" width="70" height="57.4"/>
	<text transform="matrix(1 0 0 1 580.5541 56.992)" class="st1 st4">HG Primary</text>
	<rect x="714" y="28.3" class="st3" width="70" height="57.4"/>
	<text transform="matrix(1 0 0 1 715.7612 56.992)" class="st1 st4">HG Occlusion</text>
</g>
<g>
	<path d="M112.7,116.5c0-4.2-11.4-4.8-19.6-4.8c-7.1,0-14.3,0.2-21.4,0.5c-7.1,0.2-14.5,0.5-21.7,0.5c-26.7,0-36.2-3.7-36.2-8.6
		v-1.2l14.5,0v1c0.3,3.3,8.2,4.7,23,4.7c6.3,0,12.4-0.2,19-0.4c6.3-0.2,12.9-0.5,20.1-0.5c16.9,0,25.9,1.7,28.8,4.3h0.5
		c3.2-2.6,11.6-4.3,28.6-4.3c7.1,0,13.5,0.2,20.1,0.5c6.3,0.2,12.7,0.4,18.8,0.4c14.3,0,22.5-1.2,22.7-4.7v-1.1l14.5,0v1.2
		c0,5-10.3,8.6-34.6,8.6c-7.4,0-14.5-0.2-22-0.5c-7.4-0.2-14.8-0.5-22.2-0.5c-9.3,0-19.6,0.6-19.6,4.8L112.7,116.5z"/>
</g>
<g>
	<g>
		<path class="st5" d="M120.2,118.8c-0.3,23.5,33.4,17.1,39.2,50"/>
		<g>
			<path d="M160.2,180.8c-2.6-5.5-6.7-12.2-10.9-16.3l9.8,2.7l9.2-4.2C164.8,167.7,161.8,175,160.2,180.8z"/>
		</g>
	</g>
</g>
<g>
	<g>
		<path class="st5" d="M399.5,118.5c-0.6,14.4,33.6,18.8,38.5,51.6"/>
		<g>
			<path d="M438.5,182.2c-2.4-5.6-6.3-12.4-10.4-16.6l9.7,3l9.3-3.9C443.5,169.2,440.3,176.4,438.5,182.2z"/>
		</g>
	</g>
</g>
<g>
	<g>
		<path class="st5" d="M679.5,118.5c0.3,20.2-146.1,3-164.5,52.4"/>
		<g>
			<path d="M513.2,182.8c-1.1-6-3.4-13.5-6.4-18.5l8.8,5l10-1.7C521,171.3,516.2,177.6,513.2,182.8z"/>
		</g>
	</g>
</g>
<g>
	<path d="M392.6,116.5c0-4.2-11.4-4.8-19.6-4.8c-7.1,0-14.3,0.2-21.4,0.5c-7.1,0.2-14.5,0.5-21.7,0.5c-26.7,0-36.2-3.7-36.2-8.6
		v-1.2l14.5,0v1c0.3,3.3,8.2,4.7,23,4.7c6.3,0,12.4-0.2,19-0.4c6.3-0.2,12.9-0.5,20.1-0.5c16.9,0,25.9,1.7,28.8,4.3h0.5
		c3.2-2.6,11.6-4.3,28.6-4.3c7.1,0,13.5,0.2,20.1,0.5c6.3,0.2,12.7,0.4,18.8,0.4c14.3,0,22.5-1.2,22.7-4.7v-1.1l14.5,0v1.2
		c0,5-10.3,8.6-34.6,8.6c-7.4,0-14.5-0.2-22-0.5c-7.4-0.2-14.8-0.5-22.2-0.5c-9.3,0-19.6,0.6-19.6,4.8L392.6,116.5z"/>
</g>
<g>
	<path d="M673.6,116.5c0-4.2-11.4-4.8-19.6-4.8c-7.1,0-14.3,0.2-21.4,0.5c-7.1,0.2-14.5,0.5-21.7,0.5c-26.7,0-36.2-3.7-36.2-8.6
		v-1.2l14.5,0v1c0.3,3.3,8.2,4.7,23,4.7c6.3,0,12.4-0.2,19-0.4c6.3-0.2,12.9-0.5,20.1-0.5c16.9,0,25.9,1.7,28.8,4.3h0.5
		c3.2-2.6,11.6-4.3,28.6-4.3c7.1,0,13.5,0.2,20.1,0.5c6.3,0.2,12.7,0.4,18.8,0.4c14.3,0,22.5-1.2,22.7-4.7v-1.1l14.5,0v1.2
		c0,5-10.3,8.6-34.6,8.6c-7.4,0-14.5-0.2-22-0.5c-7.4-0.2-14.8-0.5-22.2-0.5c-9.3,0-19.6,0.6-19.6,4.8L673.6,116.5z"/>
</g>
<g>
	<g transform="translate(8, 8)">
		<rect x="6.7" y="165.3" class="st6" width="100" height="100"/>
		<rect x="6.7" y="165.3" class="st7" width="35" height="100"/>
		<rect x="26.7" y="185.3" class="st8" width="80" height="50"/>
		<path class="st9" d="M156.5,177.8c-5.7,3.8-11.3,7.2-15.9,12c-0.2,0-0.2-0.2-0.3-0.2c0.1-0.8,0.1-1.5,0.4-2.1
			c0.8-1.6,0.9-3.5,0.4-5.3c-0.3-1.3-1.2-2.4-2.6-3c-1.6-0.6-3.1,0-4.6,0.8c-0.8,0.5-1.2,1-1.5,2c-0.8,2.4-0.4,5-0.4,7.5
			c0,0.2,0,0.2,0,0.3c0.3,0.5,0,0.5-0.3,0.6c-1.6,0.5-3.4,0.9-5.1,1.5c-1.6,0.6-2.7,2-2.4,3.9c0,0.4,0,0.9,0.1,1.5
			c0.2,0.9,0.2,1.8,0.3,2.7c0.2,1.3-0.8,2.4-1.2,3.6c-0.8,1.7-0.6,3.5-0.4,5.1c0.1,1.8,1.5,2.8,2.8,3.8c1.2,0.8,1.2,1.1,0.8,2.4
			c-0.6,1.2-0.9,2.6-1.2,3.9c-0.1,0.6-0.1,1.2,0,1.9c0.2,1.2,0.4,2.3,0.8,3.4c0.2,0.8,0.4,1.4,0.8,2.1c0.3,0.6,0.8,1.4,1.1,1.9
			c0.8,1.7,7.9,8.7,10.4,9.3c0.8,0.1,1.6,0.4,2.4,0.8c0.3,0.1,0.4,0.3,0.6,0.6c0.3,1.6-0.6,3.1-2.1,3.8c-1.2,0.4-2.3,1.2-3.3,1.8
			c-0.3,0.2-0.1,2.4,0.3,3.5c0,0,0,0.4,0.1,0.8c0.3,0.1,6.2,0.6,7.2,0.6c1.3,0.2,30.1,0.3,33-0.8c0.9-0.3,1.8-0.9,2.7-1.7
			c0.9-0.8,1.6-1.3,2.7-1.5c1.8-0.1,3.4-0.1,5.3-0.3c0.4,0,1.1-0.3,1.5-0.3s2.3-0.8,2.6-1.2c0.3-0.3,4.4-3,4.9-4.2
			c1.2-2.1,1.8-4.2,1.2-6.6c-0.3-0.9-0.8-1.7-1.6-2.1c-1.2-0.8-2.4-0.9-3.8-0.6c-1.1,0.1-1.4-0.1-1.4-1.1c-0.1-0.9-0.1-1.8-0.1-2.6
			c-0.1-2.1-0.3-4.2-0.6-6.3c-0.6-3.6-2.4-6.6-4.6-9.5c-4.9-6.1-10.9-9.6-19.1-8.2c-3.3,0.6-6.4,1.3-9.8,2.3
			c-1.2,0.3-2.4,0.3-3.6-0.2c-1.3-0.4-2.7-0.8-4-1c-0.9-0.2-1.7-0.6-2.1-1.3c-1.1-1.4-1.5-2.7-1.8-4.4c-0.1-0.8,0.2-1.2,0.8-1.6
			c3.6-2.3,7.4-4.2,11.3-5.7c2.4-0.9,4.7-2.1,6.4-4c0.4-0.5,0.8-1.2,0.9-1.8c0.4-3,0-5.7-2.6-7.8c-1.2-0.9-2.1-1-3.3-0.4
			C158.1,176.6,157.1,177.4,156.5,177.8z"/>
		<text transform="matrix(1 0 0 1 6.5338 282.5)"><tspan x="0" y="0" class="st10 st11">Instance Offset: 0</tspan><tspan x="0" y="16.8" class="st10 st11"># Geometries: 1</tspan></text>
	</g>
</g>
<g>
	<g transform="translate(8, 124)">
		<rect x="286.2" y="49.3" class="st6" width="100" height="100"/>
		<rect x="286.2" y="49.3" class="st7" width="35" height="100"/>
		<rect x="306.2" y="69.3" class="st8" width="80" height="50"/>
		<path class="st9" d="M436,61.8c-5.7,3.8-11.3,7.2-15.9,12c-0.2,0-0.2-0.2-0.3-0.2c0.1-0.8,0.1-1.5,0.4-2.1
			c0.8-1.6,0.9-3.5,0.4-5.3c-0.3-1.3-1.2-2.4-2.6-3c-1.6-0.6-3.1,0-4.6,0.8c-0.8,0.5-1.2,1-1.5,2c-0.8,2.4-0.4,5-0.4,7.5
			c0,0.2,0,0.2,0,0.3c0.3,0.5,0,0.5-0.3,0.6c-1.6,0.5-3.4,0.9-5.1,1.5c-1.6,0.6-2.7,2-2.4,3.9c0,0.4,0,0.9,0.1,1.5
			c0.2,0.9,0.2,1.8,0.3,2.7c0.2,1.3-0.8,2.4-1.2,3.6c-0.8,1.7-0.6,3.5-0.4,5.1c0.1,1.8,1.5,2.8,2.8,3.8c1.2,0.8,1.2,1.1,0.8,2.4
			c-0.6,1.2-0.9,2.6-1.2,3.9c-0.1,0.6-0.1,1.2,0,1.9c0.2,1.2,0.4,2.3,0.8,3.4c0.2,0.8,0.4,1.4,0.8,2.1c0.3,0.6,0.8,1.4,1.1,1.9
			c0.8,1.7,7.9,8.7,10.4,9.3c0.8,0.1,1.6,0.4,2.4,0.8c0.3,0.1,0.4,0.3,0.6,0.6c0.3,1.6-0.6,3.1-2.1,3.8c-1.2,0.4-2.3,1.2-3.3,1.8
			c-0.3,0.2-0.1,2.4,0.3,3.5c0,0,0,0.4,0.1,0.8c0.3,0.1,6.2,0.6,7.2,0.6c1.3,0.2,30.1,0.3,33-0.8c0.9-0.3,1.8-0.9,2.7-1.7
			c0.9-0.8,1.6-1.3,2.7-1.5c1.8-0.1,3.4-0.1,5.3-0.3c0.4,0,1.1-0.3,1.5-0.3s2.3-0.8,2.6-1.2c0.3-0.3,4.4-3,4.9-4.2
			c1.2-2.1,1.8-4.2,1.2-6.6c-0.3-0.9-0.8-1.7-1.6-2.1c-1.2-0.8-2.4-0.9-3.8-0.6c-1.1,0.1-1.4-0.1-1.4-1.1c-0.1-0.9-0.1-1.8-0.1-2.6
			c-0.1-2.1-0.3-4.2-0.6-6.3c-0.6-3.6-2.4-6.6-4.6-9.5c-4.9-6.1-10.9-9.6-19.1-8.2c-3.3,0.6-6.4,1.3-9.8,2.3
			c-1.2,0.3-2.4,0.3-3.6-0.2c-1.3-0.4-2.7-0.8-4-1c-0.9-0.2-1.7-0.6-2.1-1.3c-1.1-1.4-1.5-2.7-1.8-4.4c-0.1-0.8,0.2-1.2,0.8-1.6
			c3.6-2.3,7.4-4.2,11.3-5.7c2.4-0.9,4.7-2.1,6.4-4c0.4-0.5,0.8-1.2,0.9-1.8c0.4-3,0-5.7-2.6-7.8c-1.2-0.9-2.1-1-3.3-0.4
			C437.6,60.6,436.6,61.3,436,61.8z"/>
		<path class="st9" d="M516,61.8c-5.7,3.8-11.3,7.2-15.9,12c-0.1,0-0.1-0.2-0.3-0.2c0.2-0.8,0.2-1.5,0.5-2.1
			c0.8-1.6,0.9-3.5,0.5-5.3c-0.3-1.3-1.2-2.4-2.6-3c-1.6-0.6-3.1,0-4.6,0.8c-0.8,0.5-1.2,1-1.5,2c-0.8,2.4-0.5,5-0.5,7.5
			c0,0.2,0,0.2,0,0.3c0.3,0.5,0,0.5-0.3,0.6c-1.6,0.5-3.5,0.9-5.1,1.5s-2.7,2-2.4,3.9c0,0.4,0,0.9,0.1,1.5c0.1,0.9,0.1,1.8,0.3,2.7
			c0.1,1.3-0.8,2.4-1.2,3.6c-0.8,1.7-0.6,3.5-0.5,5.1c0.2,1.8,1.5,2.8,2.9,3.8c1.2,0.8,1.2,1.1,0.8,2.4c-0.6,1.2-0.9,2.6-1.2,3.9
			c-0.2,0.6-0.2,1.2,0,1.9c0.1,1.2,0.4,2.3,0.8,3.4c0.1,0.8,0.4,1.4,0.8,2.1c0.3,0.6,0.8,1.4,1,1.9c0.8,1.7,8,8.7,10.4,9.3
			c0.8,0.1,1.6,0.4,2.4,0.8c0.3,0.1,0.5,0.3,0.6,0.6c0.3,1.6-0.6,3.1-2.1,3.8c-1.2,0.4-2.3,1.2-3.3,1.8c-0.3,0.2-0.2,2.4,0.3,3.5
			c0,0,0,0.4,0.1,0.8c0.3,0.1,6.1,0.6,7.2,0.6c1.4,0.2,30.1,0.3,33-0.8c0.9-0.3,1.8-0.9,2.7-1.7c0.9-0.8,1.7-1.3,2.7-1.5
			c1.8-0.1,3.5-0.1,5.3-0.3c0.5,0,1-0.3,1.5-0.3s2.3-0.8,2.5-1.2c0.3-0.3,4.4-3,5-4.2c1.2-2.1,1.8-4.2,1.2-6.6
			c-0.3-0.9-0.8-1.7-1.7-2.1c-1.2-0.8-2.4-0.9-3.8-0.6c-1,0.1-1.3-0.1-1.3-1.1c-0.2-0.9-0.2-1.8-0.2-2.6c-0.1-2.1-0.3-4.2-0.6-6.3
			c-0.6-3.6-2.4-6.6-4.7-9.5c-4.9-6.1-10.9-9.6-19-8.2c-3.3,0.6-6.5,1.3-9.8,2.3c-1.2,0.3-2.4,0.3-3.6-0.2c-1.4-0.4-2.7-0.8-4-1
			c-0.9-0.2-1.6-0.6-2.1-1.3c-1-1.4-1.5-2.7-1.8-4.4c-0.2-0.8,0.1-1.2,0.8-1.6c3.6-2.3,7.3-4.2,11.3-5.7c2.4-0.9,4.6-2.1,6.4-4
			c0.5-0.5,0.8-1.2,0.9-1.8c0.5-3,0-5.7-2.5-7.8c-1.2-0.9-2.1-1-3.3-0.4C517.6,60.6,516.6,61.3,516,61.8z"/>
		<text transform="matrix(1 0 0 1 286.0336 165.1667)"><tspan x="0" y="0" class="st10 st11">Instance Offset: 2</tspan><tspan x="0" y="16.8" class="st10 st11"># Geometries: 2</tspan></text>
	</g>
</g>
</svg>
